<svg width="16" height="14" viewBox="0 0 16 14" fill="none" xmlns="http://www.w3.org/2000/svg">
<path d="M8.42463 5.375C5.2983 5.375 1.39038 8.21875 1.39038 9.4375C1.39038 10.6563 5.2983 13.5 8.42463 13.5C11.551 13.5 15.4589 10.6563 15.4589 9.4375C15.4589 8.21875 11.551 5.375 8.42463 5.375ZM8.42463 5.375V0.500003M12.6452 6.1875L15.4589 2.63281M4.20408 6.1875L1.39038 2.63281" stroke="#000577" stroke-linecap="round" stroke-linejoin="round"/>
<path d="M11.1713 9.5C11.1713 10.8443 9.97949 12 8.42468 12C6.86986 12 5.6781 10.8443 5.6781 9.5C5.6781 8.15574 6.86986 7 8.42468 7C9.97949 7 11.1713 8.15574 11.1713 9.5Z" stroke="#000577"/>
</svg>
